# xmcd
#
# Track frame offsets: 
#        150
#        14102
#        40637
#        58610
#        76600
#        106460
#        119787
#        141540
#        160080
#        182392
#
# Disc length: 3018 seconds
#
# Revision: 0
# Processed by: cddbd v1.5.2PL0 Copyright (c) Steve Scherf et al.
# Submitted via: ExactAudioCopy v1.0b1
#
DISCID=820bc80a
DTITLE=The Outlaws - The Outlaws Collection
DYEAR=2000
DGENRE=Country
TTITLE0=There Goes Another Love Song
TTITLE1=(Ghost) Riders in the Sky
TTITLE2=Song for You
TTITLE3=I Can't Stop Loving You
TTITLE4=Stick Around for Rock and Roll
TTITLE5=Breaker Breaker
TTITLE6=Freeborn Man
TTITLE7=Hurry Sundown
TTITLE8=Holiday
TTITLE9=Green Grass and High Tides
EXTD=
EXTT0=
EXTT1=
EXTT2=
EXTT3=
EXTT4=
EXTT5=
EXTT6=
EXTT7=
EXTT8=
EXTT9=
PLAYORDER=
